<svg xmlns="http://www.w3.org/2000/svg" width="1080" height="1080" viewBox="0 0 1080 1080"><path d="M271.23,1079.994a49.483,49.483,0,0,1-12.056-1.491H131.55l-.1-2.876a40.334,40.334,0,0,0-80.619,0l-.1,2.882H46.307A46.275,46.275,0,0,1,0,1032.26V267.066l2.946-.051a84.2,84.2,0,0,0,31.689-6.668A84.426,84.426,0,0,0,61.7,242.127,84.326,84.326,0,0,0,79.95,215.1a83.859,83.859,0,0,0,6.689-33.11A83.9,83.9,0,0,0,79.953,148.9a84.424,84.424,0,0,0-18.245-27.03,84.512,84.512,0,0,0-27.067-18.226,84.243,84.243,0,0,0-31.7-6.686L0,96.922V47.735A46.275,46.275,0,0,1,46.307,1.492H257.278a49.375,49.375,0,0,1,6.456-1.45L264.009,0h.281c33.075,1.05,66.47,3.58,99.261,7.485l3.307.4v.03c5.569.683,11.173,1.408,16.709,2.166,35.611,4.884,71.4,11.57,106.443,19.884l.547.128,1.87.445.7.17,2.39.576.2.048,3.158.77a1105.688,1105.688,0,0,1,567.758,344.676l.074-.06,1.864,2.2c.472.558.872,1.047,1.225,1.492l.063.066.069.087a47.016,47.016,0,0,1-7.388,65.635L302.766,1068.827a49.574,49.574,0,0,1-30.222,11.134l-.051.039ZM261.254,39.76a11.265,11.265,0,0,0-2.832,7.459V838.86a98.376,98.376,0,0,1,0,163.055v30.368a10.755,10.755,0,0,0,.878,4.329v.018a10.981,10.981,0,0,0,2.614,3.759l.051.051a12.989,12.989,0,0,0,8.314,3.732h1.231a13.48,13.48,0,0,0,8.5-3.025L417.2,928.735a120.745,120.745,0,1,1,103.261-84.612L692.718,702.957a76.2,76.2,0,0,1,112.54-92.229L946.452,495.01a98.424,98.424,0,0,1-4.481-192.493c-18.311-16.1-37.344-31.717-56.692-46.487a1068.2,1068.2,0,0,0-371.7-183.143,98.1,98.1,0,0,1-16.659,22.1A98.622,98.622,0,0,1,329.69,39.9c-20.8-1.912-41.826-3.249-62.568-3.977a13.445,13.445,0,0,0-5.868,3.84ZM152.863,883.008l-.442.6a62.871,62.871,0,1,0,.442-.6Zm195.185-74.5a56.763,56.763,0,1,0,56.763-56.685A56.724,56.724,0,0,0,348.048,808.5ZM80.664,495.246A40.332,40.332,0,1,0,121,454.97,40.3,40.3,0,0,0,80.664,495.246Zm849.955-96.961a34.357,34.357,0,1,0,34.357-34.309,34.333,34.333,0,0,0-34.357,34.309ZM561.532,705.576a98.909,98.909,0,1,1,.125,0ZM527.3,607.124a34.357,34.357,0,1,0,34.357-34.309A34.333,34.333,0,0,0,527.3,607.124Zm56.763-125.3h-.149a121.389,121.389,0,1,1,.149,0ZM584.064,479.929ZM527.3,360.992a56.763,56.763,0,1,0,56.763-56.685A56.724,56.724,0,0,0,527.3,360.992ZM359.8,347.567a76.4,76.4,0,1,1,.2,0ZM348.048,271.49A11.95,11.95,0,1,0,360,259.557,11.942,11.942,0,0,0,348.048,271.49Z" fill="gray"/></svg>