<svg xmlns="http://www.w3.org/2000/svg" width="1080" height="1080" viewBox="0 0 1080 1080"><path d="M267.567,629l-.048-2.933A63.912,63.912,0,0,0,204.271,563.3h-.9a64.076,64.076,0,0,0-64.051,61.011l-.149,3.082-3.076-.254a543.684,543.684,0,0,1-63.845-9.109,538.35,538.35,0,0,1-101.323-31.45,541.511,541.511,0,0,1-91.7-49.736A542.914,542.914,0,0,1-266.606,391.111a541.417,541.417,0,0,1-49.8-91.652,538.722,538.722,0,0,1-31.5-101.3c-1.492-7.274-2.837-14.572-4-21.75l-.042.015-.612-3.95A546.374,546.374,0,0,1-359,88.972c0-13.51.5-27.171,1.492-40.6l.3-3.992h.027a542.358,542.358,0,0,1,9.147-64.245A537.314,537.314,0,0,1-316.57-121.242a539.881,539.881,0,0,1,49.79-91.733A543.424,543.424,0,0,1-120.923-358.808,540.006,540.006,0,0,1-29.194-408.6,537.239,537.239,0,0,1,72.174-440.065a547.365,547.365,0,0,1,217.65-.015,537.163,537.163,0,0,1,101.368,31.468,539.866,539.866,0,0,1,91.731,49.8A544.753,544.753,0,0,1,528.5-324.368c11.835,9.962,23.384,20.56,34.33,31.5a544.635,544.635,0,0,1,65.934,79.921c4.251,6.3,8.434,12.788,12.459,19.316h0l.674,1.11q.394.636.782,1.277l1.659,2.724h-.015a540.668,540.668,0,0,1,34.229,67.306A537.5,537.5,0,0,1,710.03-19.857,544.069,544.069,0,0,1,721,88.975V405.232h-2.983a41.77,41.77,0,0,0,0,83.54H721v92.49A47.718,47.718,0,0,1,673.265,629Zm95.422-137.244a86.519,86.519,0,1,0,86.519-86.523,86.617,86.617,0,0,0-86.519,86.523Zm-537.017-59.671a41.814,41.814,0,0,0,41.768,41.77,41.817,41.817,0,0,0,41.768-41.77,41.882,41.882,0,0,0-41.768-41.77,41.82,41.82,0,0,0-41.768,41.77ZM25.381,116.978c-43.5,15.646-76.033,37.02-94.208,61.882a266.421,266.421,0,0,0,248.74,175.651H181a263.729,263.729,0,0,0,187.657-77.871,265.049,265.049,0,0,0,62.24-97.676c-18.157-24.9-50.718-46.317-94.276-61.99-45.5-16.368-99.318-25.02-155.627-25.02S70.879,100.611,25.381,116.978Zm-262.491-309.9a503.983,503.983,0,0,0-46.482,85.628,501.319,501.319,0,0,0-29.363,94.6c-2.885,14.109-5.2,28.589-6.862,43.083A101.288,101.288,0,0,1-289.981,64.9a99.975,99.975,0,0,1,11.534,46.451,99.067,99.067,0,0,1-7.409,37.581,100.55,100.55,0,0,1-19.4,30.444l.549,1.313a235.873,235.873,0,0,0,21.731,40.033,237.239,237.239,0,0,0,28.793,34.908,237.629,237.629,0,0,0,34.906,28.8,235.5,235.5,0,0,0,40.026,21.729,234.142,234.142,0,0,0,91.728,18.5H-6.428A303.969,303.969,0,0,1-87.4,225.729,299,299,0,0,1-120.326,88.975C-120.139-77.373,14.66-212.178,181-212.365a300.7,300.7,0,0,1,169.554,52.341,303.107,303.107,0,0,1,45.094,37.688,79.184,79.184,0,0,1,9.111-.525,77.657,77.657,0,0,1,77.569,77.573,77.189,77.189,0,0,1-3.807,23.922A77.856,77.856,0,0,1,468.548-1.2a300.006,300.006,0,0,1,13.777,90.175,299.285,299.285,0,0,1-88.345,212.988,307.94,307.94,0,0,1-25.359,22.714H545.073a100.941,100.941,0,0,1-26.033-30.083A99.892,99.892,0,0,1,655.117,158.51a100.917,100.917,0,0,1,30.082,26.02V88.975a507.824,507.824,0,0,0-10.245-101.65,501.321,501.321,0,0,0-29.363-94.609c-6.032-14.273-12.865-28.52-20.317-42.367a122.567,122.567,0,0,1-26.591,2.927A122.464,122.464,0,0,1,476.362-269.05a121.66,121.66,0,0,1,8.33-44.506c-7.16-5.412-14.484-10.651-21.812-15.6a503.808,503.808,0,0,0-85.624-46.487A501.44,501.44,0,0,0,282.657-405a508.424,508.424,0,0,0-101.735-10.243q-7.16,0-14.353.2A77.946,77.946,0,0,1,195.21-394a77.43,77.43,0,0,1,13.649,23.06,77.129,77.129,0,0,1,4.958,27.294,77.654,77.654,0,0,1-77.569,77.573A77.657,77.657,0,0,1,58.68-343.642,77.045,77.045,0,0,1,72.6-387.936a78.121,78.121,0,0,1,15.675-16.624q1.912-1.51,3.911-2.891Q85.721-406.3,79.358-405a501.341,501.341,0,0,0-94.6,29.364,504.193,504.193,0,0,0-85.624,46.481,507.035,507.035,0,0,0-44.695,33.965q2-.781,4.036-1.471a98.218,98.218,0,0,1,31.654-5.212c55.11,0,99.945,45.505,99.945,101.441S-54.762-98.99-109.872-98.99s-99.945-45.505-99.945-101.441a102.365,102.365,0,0,1,5.415-32.962q.826-2.432,1.772-4.818a507.189,507.189,0,0,0-34.479,45.29Zm904.321,517.6h6.053A11.944,11.944,0,0,0,685.2,312.742v-6.054a101.651,101.651,0,0,1-17.987,17.988ZM386.31-82.774l-.334.167A41.579,41.579,0,0,0,363.06-45.778,41.552,41.552,0,0,0,385.624-8.239a41.947,41.947,0,0,0,19.2,4.675,41.539,41.539,0,0,0,24.464-7.918l.23-.17a41.938,41.938,0,0,0,17.008-33.634,41.814,41.814,0,0,0-41.768-41.77A41.318,41.318,0,0,0,386.31-82.774Z" transform="translate(359 451)" fill="gray"/></svg>