<svg xmlns="http://www.w3.org/2000/svg" width="1080" height="1080.003" viewBox="0 0 1080 1080.003"><path d="M539.893,1079.982h0A539.388,539.388,0,0,1,10.97,648.817,545.364,545.364,0,0,1,0,540.25v-.269a545.64,545.64,0,0,1,10.986-108.9A539.83,539.83,0,0,1,431.177,10.922a547.641,547.641,0,0,1,217.65,0,539.848,539.848,0,0,1,420.209,420.225A545.254,545.254,0,0,1,1080,539.982v.119A539.394,539.394,0,0,1,540.119,1080,.6.6,0,0,1,539.893,1079.982ZM273.159,768.828a46.282,46.282,0,0,1,36.1,16.319c9.222,10.531,15.991,26.314,20.114,46.9a673.223,673.223,0,0,0,30.685,102.693,237.954,237.954,0,0,0,20.708,42.245,235.393,235.393,0,0,1,21.806-38.367,136.148,136.148,0,0,1,23.271-25.568c16.671-13.962,34.294-20.615,49.5-25.747.036-.03.069-.03.1-.06a116.7,116.7,0,0,0,20.851-8.5,62.862,62.862,0,0,0,17.853-16.111.283.283,0,0,0,.036-.06,75.283,75.283,0,0,1,11.993-12.232,25.228,25.228,0,0,1-23.9-2.592.514.514,0,0,1-.152-.119A25.359,25.359,0,0,1,495.9,812.33l42.782-61.13a25.362,25.362,0,0,1,41.553,29.091l-42.788,61.1a24.71,24.71,0,0,1-2.757,3.312,50.419,50.419,0,0,1,24.24-6.265c26.254,0,44.047,20.529,49.892,27.269l.027.03c.018.03.042.03.057.06a353.9,353.9,0,0,1,27.665,39.113,299.871,299.871,0,0,0,22.077,31.535c.048.06.092.119.14.179,7.512-9.338,17.08-26.015,23.608-37.382,10.4-18.139,21.15-36.878,34.139-52.3,18.879-22.406,39.924-33.772,62.547-33.772,19.359,0,37.708,7.933,56.089,24.285.027.03.051.063.074.063a84.447,84.447,0,0,0,14.863,11.307c3.2-3.908,6.239-8,9.055-12.175a.572.572,0,0,0,.036-.06,217.654,217.654,0,0,1,29.446-35.5,129.862,129.862,0,0,1,52.416-30.312c12.283-3.67,24.861-13.664,37.382-29.655,12.793-16.319,24.613-37.83,35.133-63.875A462.193,462.193,0,0,0,1036.5,601.67v-.03a315.574,315.574,0,0,0,7.7-61.718,509.285,509.285,0,0,0-10.239-101.588c-.274-1.34-.55-2.653-.832-3.965l-31.961,17.006a25.36,25.36,0,0,1-23.817-44.781l39.51-21.036c.925-.474,1.871-.9,2.84-1.28-4.439-13.694-9.514-27.328-15.1-40.575a505.95,505.95,0,0,0-46.482-85.624c-8.622-12.769-17.96-25.3-27.779-37.293a25.318,25.318,0,0,1-13.02,3.61h-.048a25.508,25.508,0,0,1-18.25-7.724l-51.8-53.663a25.386,25.386,0,0,1-5.352-26.94c-6.537-4.9-13.246-9.672-19.989-14.222A498.83,498.83,0,0,0,641.648,46a511.82,511.82,0,0,0-193.4-1.91l38.907,37.573a25.359,25.359,0,0,1-35.216,36.481l-53.651-51.81a25.2,25.2,0,0,1-5.862-8.631,500.729,500.729,0,0,0-134.3,64.144,509.842,509.842,0,0,0-64.442,51.676,25.309,25.309,0,0,1,5.1,8.41l15.3,42.036a25.361,25.361,0,1,1-47.657,17.364l-10.293-28.274A503.453,503.453,0,0,0,77.265,339.4l47.884-25.446a25.358,25.358,0,1,1,23.809,44.78L83.1,393.755a25.482,25.482,0,0,1-25.47-.955c-4.553,14.947-8.443,30.252-11.57,45.527A508.9,508.9,0,0,0,35.8,539.952a258.718,258.718,0,0,0,5.859,52.21v.03A269.967,269.967,0,0,0,57.547,643s0,.03.018.03a123.794,123.794,0,0,0,20.413,33.8,24.64,24.64,0,0,0,8.127,6.444,10.352,10.352,0,0,0,4.034-2.566c.066-.063.134-.119.206-.179,11.582-9.935,23.93-14.977,36.7-14.977a46.942,46.942,0,0,1,27.913,9.01,72.043,72.043,0,0,1,19.953,23.42,25.5,25.5,0,0,1,9.2-2.8l44.5-4.654a19.993,19.993,0,0,1,2.655-.146,25.359,25.359,0,0,1,2.652,50.569l-40.93,4.311c1.79,6.116,3.58,12.65,5.43,19.362,3.58,13.038,6.975,25.419,10.52,35.443a277.242,277.242,0,0,1,31.419-21.57,66.53,66.53,0,0,1,32.818-9.666Zm131.775,47.944a25.326,25.326,0,0,1-24.8-20.076l-9.3-43.767a25.359,25.359,0,0,1,19.532-30.1,26.315,26.315,0,0,1,5.293-.57,25.374,25.374,0,0,1,24.783,20.108l9.3,43.767a25.359,25.359,0,0,1-24.494,30.64ZM769.64,764.983h-.453l-74.565-1.313a25.36,25.36,0,0,1,.442-50.718h.456l74.559,1.313a25.359,25.359,0,1,1-.239,50.718ZM875.2,700.66v-.03a25.359,25.359,0,0,1,20.058-29.715l73.216-14.231a26.45,26.45,0,0,1,4.848-.448,25.359,25.359,0,0,1,4.824,50.244l-73.2,14.231a24.424,24.424,0,0,1-4.872.474,25.386,25.386,0,0,1-24.867-20.517ZM297.331,682.7c-.078-.06-.149-.119-.221-.179L243.465,630.7a25.326,25.326,0,0,1,8.879-42.034,93.02,93.02,0,0,1-13.67-48.68A299.3,299.3,0,0,1,274.43,397.5a32.844,32.844,0,0,1,26.964-17.277c.612-.06,1.259-.06,1.969-.06a32.865,32.865,0,0,1,26.869,13.962,37.36,37.36,0,0,0,10.442,11.188,8.982,8.982,0,0,0,2.8-1.283c.03,0,.057-.03.084-.06a69.491,69.491,0,0,0,13.2-10.71c.015-.03.036-.06.054-.06,11.746-11.635,24.643-28.554,38.3-46.482l.057-.092c15.293-20.046,31.105-40.813,48.806-59.009a32.845,32.845,0,0,1,23.536-9.968c.268,0,.546.033.811.033a32.877,32.877,0,0,1,22.71,9.9,172.672,172.672,0,0,0,13.706-11.1c.015-.03.036-.03.057-.06a166.315,166.315,0,0,1,25.2-18.766A70.534,70.534,0,0,1,565.8,247.3a63.23,63.23,0,0,1,11.125.985l-1.545-12.531a25.363,25.363,0,0,1,50.348-6.176l5.451,44.423a25.2,25.2,0,0,1-.179,7.4c12.071,10.711,23.617,22.465,34.793,33.835l.083.09c1.79,1.82,3.5,3.55,5.2,5.278a25.4,25.4,0,0,1,18.447-7.993,26.55,26.55,0,0,1,4.851.474l73.207,14.231A25.359,25.359,0,0,1,784.981,364.4a300.9,300.9,0,0,1,56.345,175.578,91.756,91.756,0,0,1-7.08,35.682,25.175,25.175,0,0,1,3.92,19.634l-15.514,72.972a25.389,25.389,0,0,1-24.783,20.078,24.456,24.456,0,0,1-5.29-.567,25.359,25.359,0,0,1-19.538-30.073l4.9-23.032a251.117,251.117,0,0,1-42.016,19.512C683.691,673.427,614.108,684.021,540,684.021s-143.7-10.594-195.939-29.834q-3.828-1.39-7.506-2.864a25.367,25.367,0,0,1-39.226,31.386Zm59.1-223.369c-53.618,19.789-81.961,47.654-81.961,80.651s28.343,60.862,81.961,80.615C404.806,638.408,470,648.223,540,648.223S675.2,638.408,723.57,620.6c30.9-11.4,53.466-25.449,67.07-41.828a25.255,25.255,0,0,1,5.275-7.16,57.258,57.258,0,0,0,9.61-31.657v-1.044c-.6-32.519-28.939-60.026-81.952-79.568-48.388-17.811-113.582-27.6-183.567-27.6s-135.185,9.786-183.57,27.6ZM106.923,626.4l-.116-.089L71.665,598.836a25.359,25.359,0,0,1,15.618-45.318,25.628,25.628,0,0,1,15.6,5.34l35.27,27.567a25.359,25.359,0,0,1-15.63,45.348,25.094,25.094,0,0,1-15.594-5.361Zm832.692-10.144h-.045a25.41,25.41,0,0,1-15.159-32.519l15.3-42.066A25.362,25.362,0,0,1,987.385,559L972.075,601.07a25.332,25.332,0,0,1-32.46,15.186Zm-807.652-105.4a.921.921,0,0,1-.233-.146,25.359,25.359,0,0,1-6.22-35.3l42.779-61.1a25.353,25.353,0,0,1,41.553,29.059l-42.785,61.1a25.314,25.314,0,0,1-35.091,6.385Zm783.173-20.556a25.111,25.111,0,0,1-17.331-6.862,1.7,1.7,0,0,1-.3-.239l-53.651-51.822A25.36,25.36,0,0,1,879.087,394.9l53.654,51.822a25.344,25.344,0,0,1-17.6,43.588ZM337.306,374.014a.3.3,0,0,1-.146-.06,25.386,25.386,0,0,1-12.7-33.414l30.335-68.153a25.361,25.361,0,0,1,46.33,20.645L370.78,361.173A25.4,25.4,0,0,1,347.6,376.209,25.1,25.1,0,0,1,337.306,374.014ZM818.688,300.92a.042.042,0,0,1-.036-.03,25.359,25.359,0,0,1,14.3-44.065l44.507-4.684c.9-.09,1.79-.146,2.685-.146a25.359,25.359,0,0,1,2.628,50.6l-44.513,4.657a19.985,19.985,0,0,1-2.658.149,25.27,25.27,0,0,1-16.91-6.48ZM715.425,228.333c-.069-.03-.131-.03-.2-.06a25.4,25.4,0,0,1-15.159-32.5l15.311-42.066a25.36,25.36,0,0,1,47.66,17.352l-15.305,42.066A25.359,25.359,0,0,1,723.9,229.813a25.016,25.016,0,0,1-8.482-1.481Zm-387.645-26a25.359,25.359,0,0,1-7.411-49.611l42.8-13.1a25.36,25.36,0,0,1,14.8,48.51L335.182,201.22a25.323,25.323,0,0,1-7.348,1.11Zm215.084-46c-.054-.1-.1-.2-.146-.3a25.383,25.383,0,0,1,10.039-34.166l65.235-36.153a25.359,25.359,0,1,1,24.578,44.364l-65.218,36.158a25.341,25.341,0,0,1-34.488-9.9Z" transform="translate(0 0)" fill="gray"/></svg>