<svg xmlns="http://www.w3.org/2000/svg" width="1080" height="1080" viewBox="0 0 1080 1080"><path d="M506.871,1097.051c-47.071-3.819-97.07-18.057-148.608-42.32a640.844,640.844,0,0,1-72.651-40.394,753.842,753.842,0,0,1-68.88-50.036A805.268,805.268,0,0,1,153.625,907a771.2,771.2,0,0,1-55.336-62.167,656.24,656.24,0,0,1-45.562-64.658,494.077,494.077,0,0,1-33.786-64.765A316.692,316.692,0,0,1,.5,620.483,517.457,517.457,0,0,1,7.174,512.645a740.731,740.731,0,0,1,28-113.349A874.865,874.865,0,0,1,80.68,287.836l90.784-68.653a401.856,401.856,0,0,0-28.892,43.733c-14.083,24.374-32.589,61.838-40.767,101.907-15.517,76.018-19.142,102.192,0,197.878A897.691,897.691,0,0,0,133.46,679.051c9.8,28.232,17.341,44.951,17.4,45.116l-.033-.09A986.533,986.533,0,0,1,126.32,615.728a717.059,717.059,0,0,1-10.2-98.593c-.984-37.256,2.178-69.331,9.4-95.329,27.77-99.843,29.024-101.916,49.945-136.464,2.976-4.917,6.349-10.5,10.252-17.1a743.4,743.4,0,0,1,49.009-71.4c14.458-18.8,25.292-31.364,25.4-31.5s15.118-8.382,38.145-18.849a645.318,645.318,0,0,1,90.092-33.377c36.708-10.278,59.1-15.426,79.9-18.354,22.607-3.186,44.131-3.81,73.668-3.81,31.488,0,67.26,4.734,91.724,8.7,26.48,4.3,45.82,8.664,46.012,8.7-.177-.072-22-9.144-54.769-19-30.017-9.027-75.372-20.474-120.964-23.744-7.744-.555-15.85-.837-24.1-.837A510.691,510.691,0,0,0,371.572,77.86c-28.781,6.477-47.938,13.017-48.13,13.083-.072-.213-.558-2.226,3.564-8.364,3.972-5.913,13.171-16.953,34.431-35.96A386.011,386.011,0,0,1,393.621,21.3a550.375,550.375,0,0,1,70.842-4.242A893.833,893.833,0,0,1,604.145,28.925,1077.075,1077.075,0,0,1,748.735,62.287a813.873,813.873,0,0,1,130.328,51.452c40.56,20.615,73.17,42.881,96.923,66.175,15.454,15.156,29.609,35.744,42.072,61.2a473.76,473.76,0,0,1,30.453,83.467c15.58,57.317,25.88,126.576,29.789,200.287,3.537,66.673,1.6,133.8-5.467,188.974a452.5,452.5,0,0,1-13.615,69.325c-5.742,19.431-12.346,33.356-19.624,41.4-19.055,21.953-36.981,37.007-58.124,48.806-19.661,10.974-40.437,18.3-66.74,27.56a1015.892,1015.892,0,0,0-139.847,59.129c-55.451,28.58-89.011,54.812-115.978,75.9-21.269,16.626-39.639,30.983-62.27,41.456a190.562,190.562,0,0,1-38.4,12.879A315.753,315.753,0,0,1,506.871,1097.051ZM147.69,174.49h0A609.7,609.7,0,0,1,215.3,93.9a263.029,263.029,0,0,1,58.73-36.7,436.927,436.927,0,0,1,54.325-20.541c3.477-1.311,7.137-2.58,10.882-3.765a531.1,531.1,0,0,0-47.455,32.738c-34.863,27.419-64.613,66.1-64.91,66.487Z" transform="translate(-0.025 -17.051)" fill="gray"/></svg>