<svg xmlns="http://www.w3.org/2000/svg" width="1080" height="1350" viewBox="0 0 1080 1350"><path d="M56.485,1342.723A92.5,92.5,0,0,1,0,1257.413V2.987A2.985,2.985,0,0,1,2.983,0c51.876,0,104.2,1.87,155.511,5.558,50.6,3.638,101.4,9.124,151.015,16.317C357.576,28.8,406,37.588,453.434,48.012S548.519,70.753,595.064,84.62c44.077,13.142,88.2,28.156,131.137,44.652s85.768,34.882,127.3,54.657c39.14,18.6,77.969,39.129,115.4,60.983s74.389,45.6,109.835,70.547a2.989,2.989,0,0,1,0,4.883L721.991,572.89V809.4a92.487,92.487,0,1,1-184.973,0V703.829L184.973,953.038v304.375A92.54,92.54,0,0,1,56.485,1342.72ZM35.8,1257.413a56.685,56.685,0,1,0,113.37,0V951.491a32.919,32.919,0,0,1,13.87-26.827L521.054,671.237a32.816,32.816,0,0,1,51.765,26.821V809.4a56.685,56.685,0,1,0,113.37,0V571.343a32.919,32.919,0,0,1,13.867-26.827l140.3-99.312C620.667,302.37,335.242,220.812,35.8,215.343v412.21c3.84-.224,7.709-.338,11.543-.338h.391a195.3,195.3,0,0,1,53.06,7.168,153.162,153.162,0,0,1,43.519,19.59,100.549,100.549,0,0,1,29.634,29.365,65.909,65.909,0,0,1,0,72.954,100.514,100.514,0,0,1-29.634,29.365A153.1,153.1,0,0,1,100.8,805.252a195.327,195.327,0,0,1-53.06,7.138h-.391c-3.828,0-7.7-.114-11.543-.335ZM382.512,655.9a153.238,153.238,0,0,1-43.519-19.593,100.517,100.517,0,0,1-29.634-29.369,65.909,65.909,0,0,1,0-72.954,100.575,100.575,0,0,1,29.634-29.366,152.927,152.927,0,0,1,43.522-19.593,200.434,200.434,0,0,1,106.136,0,153.075,153.075,0,0,1,43.516,19.593A100.513,100.513,0,0,1,561.8,533.985a65.909,65.909,0,0,1,0,72.954,100.484,100.484,0,0,1-29.634,29.369A153.222,153.222,0,0,1,488.651,655.9a200.447,200.447,0,0,1-106.139,0ZM143.837,446.83a153.17,153.17,0,0,1-43.519-19.593,100.49,100.49,0,0,1-29.634-29.369,65.909,65.909,0,0,1,0-72.954,100.522,100.522,0,0,1,29.637-29.366,153.042,153.042,0,0,1,43.516-19.593,200.434,200.434,0,0,1,106.136,0,153.093,153.093,0,0,1,43.519,19.593,100.512,100.512,0,0,1,29.634,29.366,65.909,65.909,0,0,1,0,72.954,100.455,100.455,0,0,1-29.634,29.369,153.12,153.12,0,0,1-43.516,19.593,200.447,200.447,0,0,1-106.139,0Z" fill="gray"/></svg>