<svg xmlns="http://www.w3.org/2000/svg" width="1080" height="1080.003" viewBox="0 0 1080 1080.003"><path d="M1.74,1079.732l-.24.171v-.3a2.982,2.982,0,0,1-1.5-2.589V2.985A3,3,0,0,1,2.985,0C54.858,0,107.181,1.869,158.5,5.553c50.6,3.633,101.4,9.117,151.015,16.3,48.066,6.9,96.489,15.7,143.926,26.1s95.1,22.713,141.628,36.567c44.079,13.116,88.2,28.122,131.137,44.6s85.767,34.845,127.306,54.6c39.141,18.6,77.967,39.1,115.4,60.933s74.385,45.546,109.833,70.467a2.985,2.985,0,0,1,0,4.878L4.707,1079.456a2.985,2.985,0,0,1-2.964.276ZM35.8,1013.618,840.37,444.707C620.664,302.035,335.234,220.567,35.8,215.1V626.859c3.837-.222,7.707-.336,11.544-.336h.4a195.519,195.519,0,0,1,53.058,7.149,153.175,153.175,0,0,1,43.521,19.569,100.523,100.523,0,0,1,29.634,29.334,65.781,65.781,0,0,1,0,72.873,100.5,100.5,0,0,1-29.634,29.337A153.169,153.169,0,0,1,100.8,804.352,195.527,195.527,0,0,1,47.736,811.5h-.39c-3.825,0-7.7-.114-11.544-.336ZM382.5,655.176A153.207,153.207,0,0,1,339,635.607a100.484,100.484,0,0,1-29.634-29.334,65.766,65.766,0,0,1,0-72.873A100.448,100.448,0,0,1,339,504.068,153.064,153.064,0,0,1,382.5,484.5a200.674,200.674,0,0,1,106.137,0,153.2,153.2,0,0,1,43.518,19.572,100.461,100.461,0,0,1,29.634,29.334,65.766,65.766,0,0,1,0,72.873,100.5,100.5,0,0,1-29.634,29.334,153.192,153.192,0,0,1-43.518,19.569,200.6,200.6,0,0,1-106.137,0ZM143.839,446.336a153.157,153.157,0,0,1-43.518-19.569,100.461,100.461,0,0,1-29.634-29.334,65.766,65.766,0,0,1,0-72.873,100.428,100.428,0,0,1,29.634-29.334,153.121,153.121,0,0,1,43.518-19.572,200.674,200.674,0,0,1,106.137,0,153.121,153.121,0,0,1,43.518,19.572,100.394,100.394,0,0,1,29.634,29.334,65.766,65.766,0,0,1,0,72.873,100.416,100.416,0,0,1-29.634,29.334,153.174,153.174,0,0,1-43.521,19.569,200.6,200.6,0,0,1-106.138,0Z" fill="gray"/></svg>